# xmcd
#
# Track frame offsets: 
#        150
#        17350
#        35300
#        53389
#        83390
#        98731
#        113064
#        138450
#        152699
#        169285
#        192379
#        203060
#        224576
#        247310
#
# Disc length: 3651 seconds
#
# Revision: 0
# Processed by: cddbd v1.5.2PL0 Copyright (c) Steve Scherf et al.
# Submitted via: ExactAudioCopyFreeDBPlugin 1.0
#
DISCID=b40e410e
DTITLE=New Grange - A Christmas Heritage
DYEAR=2005
DGENRE=
TTITLE0=Greensleeves
TTITLE1=Christmas Eve
TTITLE2=In the Bleak Midwinter
TTITLE3=Gypsy Winter
TTITLE4=Oh Come, Oh Come Emmanuel
TTITLE5=The Promise of Spring
TTITLE6=It Came Upon A Midnight Clear
TTITLE7=Newgrange
TTITLE8=Charity
TTITLE9=On A Quiet Night
TTITLE10=Patapan
TTITLE11=Shalom Aleichem - Breakin' Up Christmas
TTITLE12=Go Tell It On the Mountain
TTITLE13=While Roving On A Winter's Night (Live)
EXTD=
EXTT0=
EXTT1=
EXTT2=
EXTT3=
EXTT4=
EXTT5=
EXTT6=
EXTT7=
EXTT8=
EXTT9=
EXTT10=
EXTT11=
EXTT12=
EXTT13=
PLAYORDER=
